<?xml version="1.0" standalone="no"?>
<!DOCTYPE svg PUBLIC "-//W3C//DTD SVG 20010904//EN"
 "http://www.w3.org/TR/2001/REC-SVG-20010904/DTD/svg10.dtd">
<svg version="1.0" xmlns="http://www.w3.org/2000/svg"
 width="500.000000pt" height="500.000000pt" viewBox="0 0 500.000000 500.000000"
 preserveAspectRatio="xMidYMid meet">

<g transform="translate(0.000000,500.000000) scale(0.100000,-0.100000)"
fill="#000000" stroke="none">
<path d="M2370 4050 c-488 -51 -913 -333 -1160 -771 -27 -48 -64 -128 -81
-176 -31 -84 -89 -294 -89 -320 0 -9 21 -13 73 -13 75 0 155 -18 217 -50 41
-21 136 -113 155 -151 13 -24 20 -26 102 -32 104 -8 144 -18 198 -52 l40 -25
-404 3 -404 2 6 -71 6 -70 -38 -38 c-61 -60 -89 -132 -97 -256 l-7 -105 -47
-42 c-69 -62 -100 -129 -100 -217 1 -120 62 -214 175 -268 79 -37 176 -39 291
-4 43 13 107 27 141 31 l62 7 103 -89 c136 -118 205 -163 362 -239 215 -103
395 -145 624 -145 209 0 395 38 580 117 200 85 328 169 493 321 l35 34 64 -17
c117 -30 240 5 320 92 69 75 73 93 78 322 l4 203 66 72 c36 40 77 83 90 97
102 102 85 292 -32 365 -63 38 -122 42 -371 21 -105 -9 -209 -16 -230 -16 -38
1 -39 1 -20 16 37 28 146 54 272 64 69 5 135 10 146 10 19 0 19 4 13 71 -7 81
-41 246 -59 289 l-13 28 -120 -81 c-66 -45 -138 -94 -159 -109 -42 -29 -226
-152 -335 -225 -36 -24 -99 -66 -140 -95 -96 -66 -139 -84 -225 -97 -39 -6
-85 -13 -103 -17 l-34 -5 19 25 c10 14 28 26 40 26 13 0 96 50 185 111 90 60
206 139 258 174 52 35 107 73 122 84 16 13 41 21 65 21 57 0 114 37 143 93 19
36 37 55 75 75 184 100 254 189 242 306 -6 64 -25 104 -72 151 -52 52 -92 69
-160 69 -49 1 -68 -4 -105 -27 -75 -46 -173 -117 -210 -151 -20 -19 -51 -36
-73 -40 -43 -8 -111 -64 -121 -99 -4 -14 -60 -59 -151 -122 -213 -147 -315
-221 -360 -258 -22 -19 -51 -38 -65 -42 -14 -4 -53 -23 -86 -41 l-62 -34 -41
-118 c-23 -64 -48 -138 -56 -164 -17 -57 -23 -54 132 -62 55 -3 111 -10 124
-14 20 -8 17 -10 -25 -21 -101 -25 -252 -36 -318 -22 -326 66 -543 428 -463
769 29 121 109 250 207 333 210 175 484 216 713 104 100 -48 215 -149 262
-230 21 -36 43 -63 50 -60 7 2 68 46 136 97 69 51 173 128 231 171 75 55 104
82 99 91 -12 21 -168 152 -232 195 -149 101 -407 202 -586 229 -106 16 -270
21 -365 12z m-45 -215 c0 -22 -31 -33 -47 -17 -17 17 -1 44 24 40 15 -2 23
-10 23 -23z m473 16 c23 -14 10 -46 -18 -46 -16 0 -26 6 -28 19 -3 16 12 36
28 36 3 0 11 -4 18 -9z m-797 -161 c7 0 0 -11 -15 -25 -14 -13 -26 -30 -26
-37 -1 -7 -7 -1 -15 14 -8 15 -25 30 -37 34 -21 6 -21 7 4 20 15 8 30 23 33
35 7 20 8 19 26 -10 10 -17 24 -31 30 -31z m1119 -23 c11 -3 7 -8 -12 -17 -15
-7 -31 -22 -34 -34 -7 -21 -7 -21 -17 2 -6 12 -13 22 -16 22 -3 0 -12 4 -19 8
-10 7 -6 16 15 39 l28 31 20 -23 c11 -13 27 -25 35 -28z m-1291 -98 c35 -35
37 -39 16 -39 -9 0 -21 -11 -27 -25 -12 -28 -28 -33 -28 -10 0 8 -12 22 -26
32 l-26 16 26 14 c14 8 26 20 26 28 0 21 4 19 39 -16z m1367 -70 c10 -17 -13
-36 -27 -22 -12 12 -4 33 11 33 5 0 12 -5 16 -11z m589 -55 c50 -23 69 -59 69
-126 1 -69 -4 -75 -142 -174 -141 -101 -161 -94 -23 8 60 46 115 93 121 106
24 54 2 94 -40 72 -10 -5 -73 -48 -140 -95 -67 -48 -123 -85 -125 -83 -1 2
-12 22 -24 45 -37 73 -32 84 73 161 146 109 167 117 231 86z m-2139 -155 c9
-10 29 -21 45 -24 16 -4 29 -10 29 -15 0 -5 -13 -11 -29 -15 -38 -8 -58 -32
-75 -86 l-13 -44 -11 40 c-16 56 -37 82 -72 90 -40 9 -38 18 6 34 35 12 40 20
69 96 6 17 9 15 21 -19 8 -22 21 -48 30 -57z m1756 -96 c27 -76 74 -141 123
-171 49 -30 51 -41 12 -60 -39 -19 -72 -6 -125 49 -85 89 -126 194 -84 218 38
22 57 13 74 -36z m-1982 -2 c0 -14 -18 -23 -30 -16 -6 4 -8 11 -5 16 8 12 35
12 35 0z m1840 -106 c5 -14 20 -39 32 -55 12 -16 20 -31 17 -33 -139 -102
-192 -140 -229 -163 -62 -40 -250 -173 -277 -197 -33 -29 -43 -13 -43 67 l0
74 135 93 c73 52 180 126 237 166 57 39 106 72 111 72 4 1 12 -10 17 -24z
m-1762 -100 c6 -14 18 -25 27 -25 21 0 19 -13 -5 -28 -12 -7 -25 -23 -29 -35
-9 -22 -9 -21 -20 6 -6 16 -20 31 -31 34 -25 7 -26 20 -1 28 11 3 23 15 26 26
9 26 20 24 33 -6z m1880 -57 c-4 -11 -164 -125 -425 -303 -81 -55 -82 -56
-110 -40 l-28 16 27 -6 c21 -4 43 6 105 49 43 30 134 93 203 140 69 48 145
102 170 121 48 36 64 42 58 23z m-1783 -158 c0 -16 -6 -26 -18 -28 -19 -4 -32
20 -23 44 9 25 41 13 41 -16z m2265 3 c-25 -14 -57 -37 -72 -51 -31 -28 -37
-19 -12 17 22 31 73 61 104 61 22 0 19 -4 -20 -27z m-1180 -102 c0 -33 2 -65
5 -73 3 -8 -11 -20 -38 -32 l-42 -19 84 -8 c46 -4 85 -10 88 -13 3 -2 -6 -18
-18 -36 -18 -24 -29 -30 -49 -26 -14 3 -65 8 -113 12 -59 4 -87 10 -84 18 2 6
17 47 32 91 16 44 33 86 38 93 11 13 75 51 90 52 4 0 7 -27 7 -59z m1045 -366
c37 -63 69 -115 71 -115 1 0 28 42 60 93 91 147 78 136 165 137 63 0 79 -3 94
-20 17 -19 17 -21 -8 -57 -14 -21 -46 -63 -72 -93 -25 -30 -73 -88 -105 -128
l-60 -73 0 -134 c0 -73 -3 -140 -6 -149 -9 -23 -129 -23 -138 0 -3 9 -6 73 -6
144 l0 129 -110 180 c-60 99 -110 184 -110 190 0 7 29 11 78 11 l79 0 68 -115z
m-397 39 c62 -20 141 -86 177 -148 58 -99 40 -226 -45 -319 -78 -86 -117 -100
-287 -105 l-143 -4 0 294 c0 162 3 298 8 302 13 14 234 -1 290 -20z m-378
-284 l0 -300 -80 0 -79 0 -88 148 -88 147 -5 -155 -5 -155 -62 -3 -63 -3 0
264 0 264 46 7 c99 13 91 19 179 -125 125 -204 114 -205 115 8 0 205 -7 187
80 196 19 2 38 5 43 5 4 1 7 -133 7 -298z m-977 214 c67 -23 71 -32 37 -85
-33 -49 -29 -48 -89 -30 -144 42 -266 -85 -206 -213 26 -54 102 -96 173 -96
20 0 22 5 22 45 0 45 0 45 -35 45 -35 0 -35 0 -35 45 l0 45 100 0 100 0 0
-151 0 -151 -127 4 c-111 4 -135 8 -183 30 -110 50 -165 135 -164 253 0 57 5
79 28 120 31 56 93 110 158 136 55 23 160 24 221 3z m427 -54 l0 -60 -70 0
-70 0 0 -51 0 -52 70 7 70 6 0 -55 0 -55 -70 0 -70 0 0 -56 0 -57 70 6 70 6 0
-58 0 -58 -67 -6 c-38 -4 -98 -7 -135 -7 l-68 0 0 270 0 269 113 4 c61 1 122
4 135 5 21 2 22 -2 22 -58z m-1025 26 c55 -25 101 -72 113 -114 4 -15 7 -110
7 -212 l0 -185 -62 -3 -63 -3 0 91 0 90 -90 0 -90 0 0 -95 0 -95 -60 0 c-53 0
-60 2 -60 20 0 17 -3 18 -27 9 -44 -16 -73 -49 -73 -82 0 -69 55 -83 190 -46
93 25 302 33 545 22 165 -8 170 -9 173 -30 2 -16 -3 -24 -20 -27 -13 -3 -156
-7 -318 -9 -252 -4 -309 -7 -390 -25 -141 -31 -210 -9 -239 75 -13 37 -13 45
3 87 19 50 70 91 126 103 l30 6 0 139 c0 178 21 232 105 275 74 39 131 42 200
9z m2498 -616 c-28 -49 -59 -63 -133 -63 -36 0 -191 4 -345 9 l-280 9 0 25 c0
24 3 25 90 33 85 8 328 3 515 -9 65 -4 94 -2 120 9 50 22 53 21 33 -13z
m-1634 -125 c97 -28 184 -32 238 -10 45 19 79 19 87 0 14 -38 -90 -85 -188
-85 -28 0 -92 11 -141 25 -174 49 -301 42 -500 -25 -49 -16 -96 -30 -106 -30
-18 0 -33 26 -23 41 15 25 161 79 280 104 99 21 247 12 353 -20z m1109 -4 c95
-18 129 -37 119 -65 -8 -20 -25 -20 -122 -1 -283 54 -449 19 -668 -142 -99
-72 -152 -87 -297 -87 -107 1 -138 5 -215 28 -158 48 -221 58 -354 54 -111 -3
-125 -1 -135 15 -19 31 15 44 127 52 120 8 199 -3 352 -48 96 -28 125 -32 225
-32 134 0 162 10 288 98 214 151 392 184 680 128z m15 -155 c9 -23 -17 -37
-90 -47 -173 -24 -279 -63 -510 -189 -95 -51 -123 -55 -123 -15 0 16 9 26 31
35 17 7 58 31 91 52 68 44 191 107 258 132 115 43 331 63 343 32z"/>
<path d="M3170 2065 l0 -176 48 6 c138 20 211 106 183 213 -19 68 -82 112
-183 127 l-48 6 0 -176z"/>
<path d="M1225 2118 c-15 -14 -28 -38 -32 -60 l-6 -38 92 0 c101 0 103 2 80
69 -19 55 -87 69 -134 29z"/>
<path d="M2465 3531 c-51 -15 -56 -18 -35 -24 14 -4 42 -7 63 -7 44 0 41 -14
-7 -36 -30 -15 -30 -15 23 -9 30 3 63 11 74 16 10 6 22 8 25 4 12 -11 -14 -39
-49 -52 l-34 -13 40 6 c22 3 59 14 83 24 23 10 42 15 42 10 0 -13 -79 -70 -99
-71 -9 0 -11 -3 -4 -5 21 -9 89 15 132 47 l43 31 -7 -34 c-4 -18 -16 -45 -27
-60 -42 -60 -168 -108 -281 -108 -62 0 -97 -12 -97 -34 0 -22 24 -26 145 -26
149 0 250 29 322 94 29 24 37 17 23 -20 -17 -44 -49 -74 -115 -106 l-60 -30
49 6 c27 3 62 12 77 20 16 8 29 11 29 6 0 -18 -75 -65 -139 -87 -75 -25 -59
-29 44 -9 l70 14 -29 -23 c-53 -43 -137 -58 -267 -51 -99 6 -118 5 -129 -9
-10 -12 -10 -19 -1 -28 12 -12 119 -25 214 -26 60 -1 52 -4 214 100 51 33 222
160 228 169 10 16 -32 86 -89 148 -138 148 -324 217 -471 173z"/>
<path d="M2213 3395 c-76 -33 -176 -158 -160 -199 12 -30 46 -18 66 22 29 56
78 99 140 123 61 22 76 36 59 56 -14 17 -65 16 -105 -2z"/>
<path d="M2168 3038 c-8 -13 -18 -32 -24 -43 -6 -11 -36 -37 -67 -58 -61 -40
-80 -66 -75 -99 5 -35 26 -32 61 7 17 20 49 46 70 58 46 26 96 119 76 143 -16
20 -26 18 -41 -8z"/>
<path d="M2310 2853 c-28 -10 -72 -58 -96 -105 -30 -59 -67 -88 -113 -88 -45
-1 -23 -16 35 -25 51 -8 96 20 125 77 25 50 57 88 75 88 6 0 18 7 25 16 11 14
10 18 -6 30 -20 15 -22 15 -45 7z"/>
<path d="M1027 2664 c-4 -22 -7 -58 -7 -81 l0 -43 205 0 c233 0 229 -2 144 74
-66 61 -119 79 -235 84 l-101 4 -6 -38z"/>
<path d="M2252 2580 c-18 -17 -42 -30 -55 -30 -21 -1 -22 -1 -3 -15 24 -18 65
-19 87 -2 22 17 41 55 34 67 -10 17 -29 11 -63 -20z"/>
</g>
</svg>
